<svg width="18" height="12" viewBox="0 0 18 12" fill="none" xmlns="http://www.w3.org/2000/svg">
<path fill-rule="evenodd" clip-rule="evenodd" d="M0.948488 0H17.0515C17.5735 0 18.0005 0.427 18.0005 0.949V1.051C18.0005 1.573 17.5735 2 17.0515 2H0.948488C0.426488 2 0.000488281 1.573 0.000488281 1.051V0.949C0.000488281 0.427 0.426488 0 0.948488 0ZM17.0515 5H0.948488C0.426488 5 0.000488281 5.427 0.000488281 5.949V6.051C0.000488281 6.573 0.426488 7 0.948488 7H17.0515C17.5735 7 18.0005 6.573 18.0005 6.051V5.949C18.0005 5.427 17.5735 5 17.0515 5ZM17.0515 10H0.948488C0.426488 10 0.000488281 10.427 0.000488281 10.949V11.051C0.000488281 11.573 0.426488 12 0.948488 12H17.0515C17.5735 12 18.0005 11.573 18.0005 11.051V10.949C18.0005 10.427 17.5735 10 17.0515 10Z" fill="#2E3A59"/>
</svg>
